<svg xmlns="http://www.w3.org/2000/svg" viewBox="0 0 400 640" width="400" height="640" font-family="system-ui, -apple-system, Segoe UI, Helvetica, Arial, sans-serif" role="img" aria-label="Drop in the component">
<rect width="400" height="640" fill="#FFFFFF"/>
<defs><marker id="a" viewBox="0 0 10 10" refX="9" refY="5" markerWidth="8" markerHeight="8" orient="auto"><path d="M0,1 L9,5 L0,9 Z" fill="#1C2230"/></marker></defs>
<text x="20" y="30" font-size="11" font-weight="600" letter-spacing="0.08em" fill="#5B6472">1 · DEFAULT</text>
<text x="20" y="54" font-size="17" font-weight="700" fill="#1C2230">Drop in the component</text>
<text x="20" y="74" font-size="12" fill="#5B6472">Library draws every screen, iOS blue.</text>
<g transform="translate(110 96)">
<rect x="0" y="0" width="180" height="300" rx="22" fill="#1C2230"/>
<rect x="7" y="7" width="166" height="286" rx="16" fill="#FFFFFF"/>
<rect x="66" y="12" width="48" height="6" rx="3" fill="#1C2230"/>
<g text-anchor="middle">
<text x="90" y="96" font-size="13" font-weight="700" fill="#1C2230">Sign Document</text>
<text x="90" y="114" font-size="9" fill="#666666">Review and sign your document</text>
<rect x="35" y="126" width="110" height="28" rx="6" fill="#007AFF"/>
<text x="90" y="144" font-size="10" font-weight="700" fill="#FFFFFF">Sign Document</text>
<text x="90" y="178" font-size="10" fill="#007AFF">Cancel</text></g>
</g>
<rect x="20" y="420" width="360" height="34" rx="4" fill="#FEF4E8" stroke="#F7931A" stroke-width="1.5"/>
<text x="32" y="442" font-size="12.5" font-weight="600" fill="#1C2230">Host app</text>
<text x="368" y="442" font-size="10.5" fill="#5B6472" text-anchor="end">places the component</text>
<line x1="200" y1="454" x2="200" y2="470" stroke="#1C2230" stroke-width="1" marker-end="url(#a)"/>
<rect x="20" y="472" width="360" height="34" rx="4" fill="#E6F2FF" stroke="#007AFF" stroke-width="1.5"/>
<text x="32" y="494" font-size="12.5" font-weight="600" fill="#1C2230">ESignature</text>
<text x="368" y="494" font-size="10.5" fill="#5B6472" text-anchor="end">all six screens, default look</text>
<line x1="200" y1="506" x2="200" y2="522" stroke="#1C2230" stroke-width="1" marker-end="url(#a)"/>
<rect x="20" y="524" width="360" height="34" rx="4" fill="#E6F2FF" stroke="#007AFF" stroke-width="1.5"/>
<text x="32" y="546" font-size="12.5" font-weight="600" fill="#1C2230">useESignature</text>
<text x="368" y="546" font-size="10.5" fill="#5B6472" text-anchor="end">state machine</text>
<line x1="200" y1="558" x2="200" y2="574" stroke="#1C2230" stroke-width="1" marker-end="url(#a)"/>
<rect x="20" y="576" width="360" height="34" rx="4" fill="#E6F2FF" stroke="#007AFF" stroke-width="1.5"/>
<text x="32" y="598" font-size="12.5" font-weight="600" fill="#1C2230">WebView / iframe + SigningSource</text>
<text x="368" y="598" font-size="10.5" fill="#5B6472" text-anchor="end">placed by ESignature</text>

<g transform="translate(20 610)" font-size="10.5" fill="#5B6472">
<rect x="0" y="-9" width="14" height="10" rx="2" fill="#E6F2FF" stroke="#007AFF" stroke-width="1.5"/><text x="20" y="0">library owns</text>
<rect x="100" y="-9" width="14" height="10" rx="2" fill="#FEF4E8" stroke="#F7931A" stroke-width="1.5"/><text x="120" y="0">host owns</text>
</g>
</svg>